# xmcd
#
# Track frame offsets: 
#        150
#        20466
#        34629
#        49603
#        69445
#        82146
#        97008
#        113287
#        130938
#        149058
#        170838
#        190498
#        202819
#        221360
#        240837
#
# Disc length: 3248 seconds
#
# Revision: 2
# Processed by: cddbd v1.5.1PL2 Copyright (c) Steve Scherf et al.
# Submitted via: ExactAudioCopy v0.95b3
#
DISCID=ce0cae0f
DTITLE=Teresa Bright - A Gallery
DYEAR=2002
DGENRE=Hawaiian
TTITLE0=Hawaiian Vamp
TTITLE1=Le'ahi
TTITLE2=Haole Hula
TTITLE3=Nani Kaua'i
TTITLE4=Eating of the Poi
TTITLE5=Hawaiian War Chant
TTITLE6=Kuhio Beach
TTITLE7=Popo'alaea
TTITLE8=In a Little Hula Heaven
TTITLE9=Hame Pila
TTITLE10=Poliahu
TTITLE11=Tihore Mai
TTITLE12=Nani Wale Ku'u 'ike o Ha'ena
TTITLE13=He Aloha No O Honolulu
TTITLE14=Queen's Prayer
EXTD=
EXTT0=
EXTT1=
EXTT2=
EXTT3=
EXTT4=
EXTT5=
EXTT6=
EXTT7=
EXTT8=
EXTT9=
EXTT10=
EXTT11=
EXTT12=
EXTT13=
EXTT14=
PLAYORDER=
